<?xml version="1.0" standalone="no"?>
<!DOCTYPE svg PUBLIC "-//W3C//DTD SVG 20010904//EN"
 "http://www.w3.org/TR/2001/REC-SVG-20010904/DTD/svg10.dtd">
<svg version="1.0" xmlns="http://www.w3.org/2000/svg"
 width="426.000000pt" height="426.000000pt" viewBox="0 0 426.000000 426.000000"
 preserveAspectRatio="xMidYMid meet">
<metadata>
Created by potrace 1.14, written by Peter Selinger 2001-2017
</metadata>
<g transform="translate(0.000000,426.000000) scale(0.100000,-0.100000)"
fill="#000000" stroke="none">
<path d="M717 3494 c-1 -1 -52 -5 -113 -8 -62 -4 -122 -9 -135 -11 -13 -2 -49
-6 -79 -9 -30 -3 -64 -8 -75 -10 -11 -2 -42 -7 -70 -11 -27 -5 -52 -9 -55 -10
-3 0 -27 -5 -55 -9 -61 -10 -97 -30 -118 -66 -15 -25 -17 -143 -17 -1275 0
-1117 1 -1250 16 -1280 33 -70 -89 -65 1657 -65 1030 0 1585 3 1602 10 61 23
72 53 74 190 2 148 -16 282 -70 515 -17 72 -33 164 -36 206 -6 75 -5 77 21 94
33 22 69 16 196 -35 127 -52 198 -70 295 -76 310 -21 509 185 492 511 -6 116
-25 182 -72 247 -110 152 -365 167 -742 44 -137 -44 -184 -46 -220 -10 -24 24
-25 30 -20 97 4 40 18 117 32 172 15 55 35 133 45 172 33 125 59 279 65 375 6
109 -29 152 -132 163 -26 2 -75 7 -108 11 -33 3 -76 8 -95 10 -150 16 -482 22
-635 11 -246 -18 -375 -73 -375 -158 0 -29 29 -94 49 -109 15 -11 72 -110 101
-173 42 -94 61 -169 65 -263 9 -202 -75 -337 -241 -386 -112 -33 -330 -4 -444
58 -212 117 -228 324 -55 710 30 67 55 135 55 151 0 49 -49 105 -120 137 -66
30 -203 62 -310 72 -62 6 -368 13 -373 8z"/>
</g>
</svg>
